<?xml version="1.0" standalone="no"?>
<!DOCTYPE svg PUBLIC "-//W3C//DTD SVG 20010904//EN"
 "http://www.w3.org/TR/2001/REC-SVG-20010904/DTD/svg10.dtd">
<svg version="1.0" xmlns="http://www.w3.org/2000/svg"
 width="800.000000pt" height="504.000000pt" viewBox="0 0 800.000000 504.000000"
 preserveAspectRatio="xMidYMid meet">

<g transform="translate(0.000000,504.000000) scale(0.100000,-0.100000)"
fill="#000000" stroke="none">
<path d="M2109 3101 l-24 -19 0 -562 0 -562 24 -19 c39 -31 48 -24 50 38 5
160 66 292 274 596 175 256 229 355 260 476 16 64 27 56 27 -19 0 -122 -68
-303 -178 -477 -45 -70 -69 -136 -63 -170 1 -7 -3 -13 -8 -13 -9 0 -7 37 4 68
2 6 2 12 0 12 -4 0 -130 -181 -159 -230 -8 -12 75 60 185 160 15 14 33 26 40
28 21 5 49 33 43 43 -6 10 31 31 39 22 11 -10 36 18 30 33 -3 8 0 14 6 14 6 0
11 -5 11 -11 0 -7 8 -6 23 4 15 10 22 24 21 43 -1 20 0 22 3 7 2 -13 6 -23 9
-23 4 0 78 48 259 170 28 19 52 36 55 40 3 3 30 24 60 47 73 55 99 79 148 136
36 41 42 55 42 93 0 34 -6 51 -25 69 l-24 25 -554 0 c-531 0 -556 -1 -578 -19z
m611 -492 c0 -6 -4 -7 -10 -4 -5 3 -10 11 -10 16 0 6 5 7 10 4 6 -3 10 -11 10
-16z m-50 -34 c0 -25 -4 -45 -9 -45 -6 0 -8 17 -6 38 4 52 4 52 10 52 3 0 5
-20 5 -45z m-66 -61 c9 -3 16 -11 16 -16 0 -7 -4 -7 -12 0 -7 5 -22 12 -33 15
-15 3 -16 5 -3 6 9 0 23 -2 32 -5z m-54 -8 c0 -3 -4 -8 -10 -11 -5 -3 -10 -1
-10 4 0 6 5 11 10 11 6 0 10 -2 10 -4z m19 -59 c-2 -1 -13 -9 -24 -17 -19 -14
-19 -14 -6 3 7 9 18 17 24 17 6 0 8 -1 6 -3z"/>
<path d="M3635 2862 c-3 -3 -5 -90 -5 -193 l0 -189 35 18 35 17 0 176 0 176
-30 0 c-16 0 -32 -3 -35 -5z"/>
<path d="M4095 2851 c-84 -39 -125 -105 -125 -198 1 -134 96 -226 228 -219 61
3 104 25 113 56 4 16 7 19 8 8 2 -28 13 -21 46 25 27 38 30 49 30 123 0 60 -5
89 -19 115 -51 93 -183 136 -281 90z m150 -55 c66 -28 96 -113 70 -202 -18
-64 -54 -94 -113 -94 -23 0 -45 -6 -52 -15 -7 -8 -18 -15 -24 -15 -6 0 -3 7 7
14 16 12 15 14 -13 26 -89 37 -101 218 -18 272 45 30 94 34 143 14z m115 -221
c6 -8 10 -20 7 -27 -3 -8 -6 -5 -6 6 -1 13 -6 17 -21 13 -20 -5 -26 3 -13 16
10 11 19 8 33 -8z m-43 -47 c-3 -8 -6 -5 -6 6 -1 11 2 17 5 13 3 -3 4 -12 1
-19z m-82 -73 c-16 -8 -37 -14 -44 -15 -23 0 0 18 29 23 43 7 46 6 15 -8z"/>
<path d="M4556 2863 c-3 -4 -6 -26 -6 -50 0 -49 9 -53 60 -22 43 27 125 22
148 -7 16 -22 11 -111 -8 -141 -10 -16 -11 -15 -6 5 3 18 1 22 -11 18 -8 -3
-27 -6 -43 -6 -19 0 -29 -6 -33 -20 -3 -11 -11 -20 -17 -20 -9 0 -10 3 -1 13
6 8 7 17 2 23 -5 5 -11 19 -13 31 -3 19 -5 20 -21 8 -17 -12 -17 -15 -3 -44
14 -27 14 -30 1 -25 -24 9 -29 51 -11 79 9 14 21 25 26 25 6 0 10 9 10 20 0
21 -24 27 -35 9 -4 -6 -12 -8 -19 -6 -14 5 -19 -17 -20 -86 -1 -40 3 -52 24
-67 30 -24 50 -25 50 -5 0 10 10 15 28 15 23 0 35 -12 81 -82 30 -46 56 -85
58 -87 2 -3 9 1 15 7 7 7 19 12 28 11 11 0 9 -3 -4 -8 -19 -7 -19 -8 2 -13 12
-4 22 -2 22 4 0 5 5 6 12 2 14 -9 9 -1 -50 86 -59 86 -59 85 -77 70 -8 -7 -15
-8 -15 -3 0 5 16 18 36 29 52 27 79 67 79 117 0 52 -28 91 -75 106 -41 12
-204 23 -214 14z m164 -220 c0 -14 -19 -38 -25 -32 -8 8 5 39 16 39 5 0 9 -3
9 -7z m106 -135 c4 -6 3 -8 -4 -4 -6 3 -13 2 -17 -4 -3 -5 -12 -10 -18 -10 -7
0 -3 7 7 15 24 18 23 18 32 3z"/>
<path d="M5024 2861 c-9 -10 -4 -351 6 -351 6 0 10 -5 10 -11 0 -5 -4 -7 -10
-4 -6 4 -10 -6 -10 -24 l0 -30 135 -3 c74 -2 135 0 135 5 0 4 -6 7 -12 7 -10
0 -9 3 1 9 7 5 11 15 9 22 -3 10 -27 12 -96 10 l-92 -3 0 66 0 66 75 0 75 0 0
30 0 30 -75 0 -75 0 0 65 0 65 95 0 95 0 0 31 0 30 -131 -3 c-71 -1 -132 -5
-135 -7z m179 -396 c-3 -9 -8 -14 -10 -11 -3 3 -2 9 2 15 9 16 15 13 8 -4z"/>
<path d="M5449 2862 c0 -4 -1 -100 -2 -214 l-2 -208 32 0 32 0 3 158 3 157 47
-90 c94 -182 90 -176 118 -173 21 3 35 23 90 125 36 68 69 123 73 123 5 0 7
-68 5 -150 l-3 -150 33 0 32 0 0 214 0 213 -35 -2 c-20 -1 -39 -6 -44 -11 -5
-5 -42 -72 -82 -148 -40 -77 -75 -133 -77 -125 -5 13 -141 269 -149 278 -6 8
-73 10 -74 3z"/>
<path d="M4550 2510 c0 -67 1 -70 24 -70 19 0 26 6 29 28 l4 27 2 -27 c2 -41
21 -34 21 8 0 21 -4 33 -10 29 -5 -3 -10 -1 -10 4 0 6 5 11 10 11 6 0 10 11
10 24 0 21 -4 24 -26 20 -16 -3 -23 -1 -19 6 3 6 -3 10 -14 10 -19 0 -21 -6
-21 -70z"/>
<path d="M3653 2484 c-27 -20 -30 -44 -5 -44 206 -6 231 -1 232 43 0 14 -9 17
-52 17 -41 0 -49 -3 -38 -11 12 -9 11 -9 -5 -3 -40 15 -109 14 -132 -2z m80
-31 c-7 -2 -19 -2 -25 0 -7 3 -2 5 12 5 14 0 19 -2 13 -5z"/>
<path d="M2600 2460 c-9 -6 -10 -10 -3 -10 6 0 15 5 18 10 8 12 4 12 -15 0z"/>
<path d="M3630 2237 c0 -37 4 -67 9 -67 11 0 10 115 -1 126 -5 4 -8 -23 -8
-59z"/>
<path d="M3750 2233 c0 -60 15 -88 22 -41 2 13 11 24 23 26 70 13 49 86 -22
80 -21 -2 -23 -7 -23 -65z m68 25 c-2 -15 -11 -24 -25 -26 -19 -3 -23 1 -23
22 0 21 5 26 26 26 21 0 25 -4 22 -22z"/>
<path d="M3948 2289 c-26 -15 -22 -31 14 -61 27 -23 30 -29 18 -37 -8 -6 -26
-8 -40 -5 -20 4 -22 3 -10 -5 24 -17 58 -13 70 9 13 25 6 38 -27 51 -32 12
-28 45 6 41 15 -2 21 0 17 7 -9 14 -26 14 -48 0z"/>
<path d="M4100 2247 c0 -59 12 -77 50 -77 14 0 31 5 38 12 15 15 17 122 2 113
-5 -3 -10 -26 -10 -50 0 -33 -5 -47 -19 -54 -27 -15 -43 8 -43 64 0 25 -4 45
-9 45 -5 0 -9 -24 -9 -53z"/>
<path d="M4300 2236 c0 -73 17 -91 22 -23 l3 42 18 -32 c23 -43 34 -41 55 5
l17 37 3 -47 c5 -71 21 -58 21 16 -1 75 -15 79 -45 16 -11 -22 -21 -40 -24
-40 -3 0 -14 19 -26 42 -32 64 -44 60 -44 -16z"/>
<path d="M4656 2287 c-24 -18 -13 -53 19 -61 26 -7 34 -31 13 -39 -7 -2 -21 0
-32 5 -14 8 -17 7 -14 -4 6 -18 46 -23 64 -8 22 19 17 39 -16 58 -37 21 -39
42 -4 42 14 0 23 4 19 10 -9 14 -28 13 -49 -3z"/>
<path d="M4818 2294 c-11 -10 -10 -124 1 -124 5 0 10 8 12 18 6 27 -5 115 -13
106z"/>
<path d="M4930 2288 c0 -5 9 -8 20 -8 18 0 20 -7 20 -56 0 -30 4 -53 8 -50 4
2 7 26 6 52 -2 38 1 47 17 51 36 10 19 24 -26 21 -25 -2 -45 -6 -45 -10z"/>
<path d="M5248 2263 c-30 -68 -38 -93 -29 -93 5 0 11 7 15 15 3 9 18 15 35 15
16 0 31 -6 35 -15 3 -8 10 -15 15 -15 12 0 -32 123 -46 127 -5 2 -16 -14 -25
-34z m36 -9 c10 -25 7 -31 -14 -37 -13 -3 -20 0 -20 8 0 20 11 45 20 45 4 0
11 -7 14 -16z"/>
<path d="M5420 2235 c0 -72 17 -90 22 -22 l3 42 18 -32 c10 -18 21 -33 26 -33
5 0 17 17 27 38 l19 37 3 -47 c2 -27 8 -48 13 -48 6 0 9 26 7 63 -3 69 -15 77
-40 27 -27 -52 -32 -52 -57 -5 -13 25 -28 45 -32 45 -5 0 -9 -29 -9 -65z"/>
<path d="M5660 2235 l0 -65 35 0 c19 0 35 4 35 10 0 5 -10 9 -22 7 -33 -3 -38
40 -6 46 l23 4 -22 2 c-16 1 -23 7 -23 21 0 16 7 20 31 20 17 0 28 4 24 10 -3
6 -22 10 -41 10 l-34 0 0 -65z"/>
<path d="M5820 2290 c0 -5 9 -10 20 -10 18 0 20 -7 20 -55 0 -30 5 -55 10 -55
6 0 10 25 10 55 0 48 2 55 20 55 11 0 20 5 20 10 0 6 -22 10 -50 10 -27 0 -50
-4 -50 -10z"/>
</g>
</svg>
